# xmcd CD database file
#
# Track frame offsets:
#	150
#	40570
#	75495
#	94867
#	117857
#	138350
#	213830
#
# Disc length: 3032 seconds
#
# Revision: 3
# Processed by: cddbd v1.5.1PL0 Copyright (c) Steve Scherf et al.
# Submitted via: CDex 1.50
#
DISCID=4e0bd607
DTITLE=Henry Purcell - Anthems, Instrumental music, songs 1
DYEAR=1997
DGENRE=Jazz
TTITLE0=Rejoice in the lord alway
TTITLE1=Blow up the trumpet in Sion
TTITLE2=O God, thou art my God
TTITLE3=Chacony in g minor
TTITLE4=O God, thou hast cast us out
TTITLE5=My heart is indeiting
TTITLE6=Remember not, Lord our offenses
EXTD=YEAR: 1997
EXTT0=
EXTT1=
EXTT2=
EXTT3=
EXTT4=
EXTT5=
EXTT6=
PLAYORDER=
